<svg width="272" height="108" viewBox="0 0 272 108" fill="none" xmlns="http://www.w3.org/2000/svg">
	<path d="M127.057 104V95.2727H128.062V98.4943H128.148C128.222 98.3807 128.324 98.2358 128.455 98.0597C128.588 97.8807 128.778 97.7216 129.026 97.5824C129.276 97.4403 129.614 97.3693 130.04 97.3693C130.591 97.3693 131.077 97.5071 131.497 97.7827C131.918 98.0582 132.246 98.4489 132.482 98.9545C132.717 99.4602 132.835 100.057 132.835 100.744C132.835 101.438 132.717 102.038 132.482 102.547C132.246 103.053 131.919 103.445 131.501 103.723C131.084 103.999 130.602 104.136 130.057 104.136C129.636 104.136 129.3 104.067 129.047 103.928C128.794 103.786 128.599 103.625 128.463 103.446C128.327 103.264 128.222 103.114 128.148 102.994H128.028V104H127.057ZM128.045 100.727C128.045 101.222 128.118 101.658 128.263 102.036C128.408 102.411 128.619 102.705 128.898 102.918C129.176 103.128 129.517 103.233 129.92 103.233C130.341 103.233 130.692 103.122 130.973 102.901C131.257 102.676 131.47 102.375 131.612 101.997C131.757 101.616 131.83 101.193 131.83 100.727C131.83 100.267 131.759 99.8523 131.616 99.483C131.477 99.1108 131.266 98.8168 130.982 98.6009C130.7 98.3821 130.347 98.2727 129.92 98.2727C129.511 98.2727 129.168 98.3764 128.889 98.5838C128.611 98.7884 128.401 99.0753 128.259 99.4446C128.116 99.8111 128.045 100.239 128.045 100.727Z" fill="#7C3AED" />
	<path d="M60.7138 89.5L92.3502 2.5H211.286L179.65 89.5H60.7138Z" fill="#F5F3FF" stroke="#7C3AED" />
	<path d="M96.5757 88.4243C96.8101 88.6586 97.1899 88.6586 97.4243 88.4243L101.243 84.6059C101.477 84.3716 101.477 83.9917 101.243 83.7574C101.008 83.523 100.628 83.523 100.394 83.7574L97 87.1515L93.6059 83.7574C93.3716 83.523 92.9917 83.523 92.7574 83.7574C92.523 83.9917 92.523 84.3716 92.7574 84.6059L96.5757 88.4243ZM97.4243 3.57574C97.19 3.34142 96.8101 3.34142 96.5757 3.57574L92.7574 7.39411C92.523 7.62843 92.523 8.00833 92.7574 8.24265C92.9917 8.47696 93.3716 8.47696 93.6059 8.24265L97 4.84853L100.394 8.24265C100.628 8.47696 101.008 8.47696 101.243 8.24265C101.477 8.00833 101.477 7.62843 101.243 7.39411L97.4243 3.57574ZM97.6 88L97.6 4L96.4 4L96.4 88L97.6 88Z" fill="#7C3AED" />
	<path d="M102.926 46.0625V50H101.92V41.2727H102.926V44.4773H103.011C103.165 44.1392 103.395 43.8707 103.702 43.6719C104.011 43.4702 104.423 43.3693 104.938 43.3693C105.384 43.3693 105.774 43.4588 106.109 43.6378C106.445 43.8139 106.705 44.0852 106.889 44.4517C107.077 44.8153 107.17 45.2784 107.17 45.8409V50H106.165V45.9091C106.165 45.3892 106.03 44.9872 105.76 44.7031C105.493 44.4162 105.122 44.2727 104.648 44.2727C104.318 44.2727 104.023 44.3423 103.761 44.4815C103.503 44.6207 103.298 44.8239 103.148 45.0909C103 45.358 102.926 45.6818 102.926 46.0625Z" fill="#7C3AED" />
</svg>