<svg width="272" height="108" viewBox="0 0 272 108" fill="none" xmlns="http://www.w3.org/2000/svg">
	<path d="M225.5 54C225.5 57.9233 223.115 61.7404 218.618 65.2846C214.126 68.8244 207.596 72.0341 199.481 74.7389C183.258 80.1466 160.814 83.5 136 83.5C111.186 83.5 88.7418 80.1466 72.5185 74.7389C64.4042 72.0341 57.8738 68.8244 53.3821 65.2846C48.8849 61.7404 46.5 57.9233 46.5 54C46.5 50.0767 48.8849 46.2596 53.3821 42.7154C57.8738 39.1756 64.4042 35.9659 72.5185 33.2611C88.7418 27.8534 111.186 24.5 136 24.5C160.814 24.5 183.258 27.8534 199.481 33.2611C207.596 35.9659 214.126 39.1756 218.618 42.7154C223.115 46.2596 225.5 50.0767 225.5 54Z" fill="#F5F3FF" stroke="#7C3AED" />
	<path d="M223.424 54.4243C223.659 54.19 223.659 53.8101 223.424 53.5757L219.606 49.7574C219.372 49.5231 218.992 49.5231 218.757 49.7574C218.523 49.9917 218.523 50.3716 218.757 50.6059L222.151 54L218.757 57.3941C218.523 57.6284 218.523 58.0083 218.757 58.2426C218.992 58.477 219.372 58.477 219.606 58.2426L223.424 54.4243ZM136 54.6L223 54.6L223 53.4L136 53.4L136 54.6Z" fill="#7C3AED" />
	<path d="M136.424 27.5757C136.19 27.3414 135.81 27.3414 135.576 27.5757L131.757 31.3941C131.523 31.6284 131.523 32.0083 131.757 32.2426C131.992 32.477 132.372 32.477 132.606 32.2426L136 28.8485L139.394 32.2426C139.628 32.477 140.008 32.477 140.243 32.2426C140.477 32.0083 140.477 31.6284 140.243 31.3941L136.424 27.5757ZM136.6 54L136.6 28L135.4 28L135.4 54L136.6 54Z" fill="#7C3AED" />
	<path d="M176.847 68.1534C176.432 68.1534 176.055 68.0753 175.717 67.919C175.379 67.7599 175.111 67.5312 174.912 67.233C174.713 66.9318 174.614 66.5682 174.614 66.142C174.614 65.767 174.688 65.4631 174.835 65.2301C174.983 64.9943 175.18 64.8097 175.428 64.6761C175.675 64.5426 175.947 64.4432 176.246 64.3778C176.547 64.3097 176.849 64.2557 177.153 64.2159C177.551 64.1648 177.874 64.1264 178.121 64.1009C178.371 64.0724 178.553 64.0256 178.666 63.9602C178.783 63.8949 178.841 63.7812 178.841 63.6193V63.5852C178.841 63.1648 178.726 62.8381 178.496 62.6051C178.268 62.3722 177.923 62.2557 177.46 62.2557C176.98 62.2557 176.604 62.3608 176.331 62.571C176.058 62.7812 175.866 63.0057 175.756 63.2443L174.801 62.9034C174.972 62.5057 175.199 62.196 175.483 61.9744C175.77 61.75 176.082 61.5937 176.42 61.5057C176.761 61.4148 177.097 61.3693 177.426 61.3693C177.636 61.3693 177.878 61.3949 178.151 61.446C178.426 61.4943 178.692 61.5952 178.947 61.7486C179.206 61.902 179.42 62.1335 179.591 62.4432C179.761 62.7528 179.847 63.1676 179.847 63.6875V68H178.841V67.1136H178.79C178.722 67.2557 178.608 67.4077 178.449 67.5696C178.29 67.7315 178.078 67.8693 177.814 67.983C177.55 68.0966 177.227 68.1534 176.847 68.1534ZM177 67.25C177.398 67.25 177.733 67.1719 178.006 67.0156C178.281 66.8594 178.489 66.6577 178.628 66.4105C178.77 66.1634 178.841 65.9034 178.841 65.6307V64.7102C178.798 64.7614 178.705 64.8082 178.56 64.8509C178.418 64.8906 178.253 64.9261 178.065 64.9574C177.881 64.9858 177.7 65.0114 177.524 65.0341C177.351 65.054 177.21 65.071 177.102 65.0852C176.841 65.1193 176.597 65.1747 176.369 65.2514C176.145 65.3253 175.963 65.4375 175.824 65.5881C175.688 65.7358 175.619 65.9375 175.619 66.1932C175.619 66.5426 175.749 66.8068 176.007 66.9858C176.268 67.1619 176.599 67.25 177 67.25Z" fill="#7C3AED" />
	<path d="M124.057 45V36.2727H125.062V39.4943H125.148C125.222 39.3807 125.324 39.2358 125.455 39.0597C125.588 38.8807 125.778 38.7216 126.026 38.5824C126.276 38.4403 126.614 38.3693 127.04 38.3693C127.591 38.3693 128.077 38.5071 128.497 38.7827C128.918 39.0582 129.246 39.4489 129.482 39.9545C129.717 40.4602 129.835 41.0568 129.835 41.7443C129.835 42.4375 129.717 43.0384 129.482 43.5469C129.246 44.0526 128.919 44.4446 128.501 44.723C128.084 44.9986 127.602 45.1364 127.057 45.1364C126.636 45.1364 126.3 45.0668 126.047 44.9276C125.794 44.7855 125.599 44.625 125.463 44.446C125.327 44.2642 125.222 44.1136 125.148 43.9943H125.028V45H124.057ZM125.045 41.7273C125.045 42.2216 125.118 42.6577 125.263 43.0355C125.408 43.4105 125.619 43.7045 125.898 43.9176C126.176 44.1278 126.517 44.233 126.92 44.233C127.341 44.233 127.692 44.1222 127.973 43.9006C128.257 43.6761 128.47 43.375 128.612 42.9972C128.757 42.6165 128.83 42.1932 128.83 41.7273C128.83 41.267 128.759 40.8523 128.616 40.483C128.477 40.1108 128.266 39.8168 127.982 39.6009C127.7 39.3821 127.347 39.2727 126.92 39.2727C126.511 39.2727 126.168 39.3764 125.889 39.5838C125.611 39.7884 125.401 40.0753 125.259 40.4446C125.116 40.8111 125.045 41.2386 125.045 41.7273Z" fill="#7C3AED" />
</svg>