<svg width="272" height="108" viewBox="0 0 272 108" fill="none" xmlns="http://www.w3.org/2000/svg">
	<path d="M176.164 24.7847C188.232 31.7667 198.277 41.773 205.316 53.8179L136 93.9223L66.6837 53.8179C73.7229 41.773 83.7682 31.7667 95.8359 24.7847C108.047 17.7195 121.9 14 136 14C150.1 14 163.953 17.7195 176.164 24.7847Z" fill="#F5F3FF" stroke="#7C3AED" />
	<path d="M122.521 84.1425C122.599 84.4072 122.878 84.558 123.142 84.4793L127.456 83.1969C127.721 83.1182 127.871 82.8398 127.793 82.5751C127.714 82.3105 127.436 82.1597 127.171 82.2384L123.337 83.3782L122.197 79.5441C122.118 79.2794 121.84 79.1286 121.575 79.2073C121.31 79.286 121.16 79.5644 121.238 79.8291L122.521 84.1425ZM148.858 84.4793C149.122 84.558 149.401 84.4072 149.479 84.1425L150.762 79.8291C150.84 79.5644 150.69 79.286 150.425 79.2073C150.16 79.1286 149.882 79.2794 149.803 79.5441L148.663 83.3782L144.829 82.2384C144.564 82.1597 144.286 82.3105 144.207 82.5751C144.129 82.8398 144.279 83.1182 144.544 83.1969L148.858 84.4793ZM123.44 84.2381C128.843 74.2633 143.157 74.2633 148.56 84.2381L149.44 83.7619C143.658 73.0888 128.342 73.0888 122.56 83.7619L123.44 84.2381Z" fill="#7C3AED" />
	<path d="M135.847 70.1534C135.432 70.1534 135.055 70.0753 134.717 69.919C134.379 69.7599 134.111 69.5312 133.912 69.233C133.713 68.9318 133.614 68.5682 133.614 68.142C133.614 67.767 133.688 67.4631 133.835 67.2301C133.983 66.9943 134.18 66.8097 134.428 66.6761C134.675 66.5426 134.947 66.4432 135.246 66.3778C135.547 66.3097 135.849 66.2557 136.153 66.2159C136.551 66.1648 136.874 66.1264 137.121 66.1009C137.371 66.0724 137.553 66.0256 137.666 65.9602C137.783 65.8949 137.841 65.7812 137.841 65.6193V65.5852C137.841 65.1648 137.726 64.8381 137.496 64.6051C137.268 64.3722 136.923 64.2557 136.46 64.2557C135.98 64.2557 135.604 64.3608 135.331 64.571C135.058 64.7812 134.866 65.0057 134.756 65.2443L133.801 64.9034C133.972 64.5057 134.199 64.196 134.483 63.9744C134.77 63.75 135.082 63.5937 135.42 63.5057C135.761 63.4148 136.097 63.3693 136.426 63.3693C136.636 63.3693 136.878 63.3949 137.151 63.446C137.426 63.4943 137.692 63.5952 137.947 63.7486C138.206 63.902 138.42 64.1335 138.591 64.4432C138.761 64.7528 138.847 65.1676 138.847 65.6875V70H137.841V69.1136H137.79C137.722 69.2557 137.608 69.4077 137.449 69.5696C137.29 69.7315 137.078 69.8693 136.814 69.983C136.55 70.0966 136.227 70.1534 135.847 70.1534ZM136 69.25C136.398 69.25 136.733 69.1719 137.006 69.0156C137.281 68.8594 137.489 68.6577 137.628 68.4105C137.77 68.1634 137.841 67.9034 137.841 67.6307V66.7102C137.798 66.7614 137.705 66.8082 137.56 66.8509C137.418 66.8906 137.253 66.9261 137.065 66.9574C136.881 66.9858 136.7 67.0114 136.524 67.0341C136.351 67.054 136.21 67.071 136.102 67.0852C135.841 67.1193 135.597 67.1747 135.369 67.2514C135.145 67.3253 134.963 67.4375 134.824 67.5881C134.688 67.7358 134.619 67.9375 134.619 68.1932C134.619 68.5426 134.749 68.8068 135.007 68.9858C135.268 69.1619 135.599 69.25 136 69.25Z" fill="#7C3AED" />
	<path d="M179.92 80V73.4545H180.892V74.4432H180.96C181.08 74.1193 181.295 73.8565 181.608 73.6548C181.92 73.4531 182.273 73.3523 182.665 73.3523C182.739 73.3523 182.831 73.3537 182.942 73.3565C183.053 73.3594 183.136 73.3636 183.193 73.3693V74.392C183.159 74.3835 183.081 74.3707 182.959 74.3537C182.839 74.3338 182.713 74.3239 182.58 74.3239C182.261 74.3239 181.977 74.3906 181.727 74.5241C181.48 74.6548 181.284 74.8366 181.139 75.0696C180.997 75.2997 180.926 75.5625 180.926 75.858V80H179.92Z" fill="#7C3AED" />
</svg>