<svg width="272" height="108" viewBox="0 0 272 108" fill="none" xmlns="http://www.w3.org/2000/svg">
	<circle cx="136" cy="54" r="51.5" fill="#F5F3FF" stroke="#7C3AED" />
	<path d="M132.8 54C132.8 55.7673 134.233 57.2 136 57.2C137.767 57.2 139.2 55.7673 139.2 54C139.2 52.2327 137.767 50.8 136 50.8C134.233 50.8 132.8 52.2327 132.8 54ZM186.424 54.4243C186.659 54.19 186.659 53.8101 186.424 53.5757L182.606 49.7574C182.372 49.523 181.992 49.523 181.757 49.7574C181.523 49.9917 181.523 50.3716 181.757 50.6059L185.151 54L181.757 57.3941C181.523 57.6284 181.523 58.0083 181.757 58.2426C181.992 58.477 182.372 58.477 182.606 58.2426L186.424 54.4243ZM136 54.6L186 54.6L186 53.4L136 53.4L136 54.6Z" fill="#7C3AED" />
	<path d="M159.92 44V37.4545H160.892V38.4432H160.96C161.08 38.1193 161.295 37.8565 161.608 37.6548C161.92 37.4531 162.273 37.3523 162.665 37.3523C162.739 37.3523 162.831 37.3537 162.942 37.3565C163.053 37.3594 163.136 37.3636 163.193 37.3693V38.392C163.159 38.3835 163.081 38.3707 162.959 38.3537C162.839 38.3338 162.713 38.3239 162.58 38.3239C162.261 38.3239 161.977 38.3906 161.727 38.5241C161.48 38.6548 161.284 38.8366 161.139 39.0696C160.997 39.2997 160.926 39.5625 160.926 39.858V44H159.92Z" fill="#7C3AED" />
</svg>