<svg width="272" height="108" viewBox="0 0 272 108" fill="none" xmlns="http://www.w3.org/2000/svg">
	<path d="M79.8318 77.5L113.159 14.7672L191.575 77.5H79.8318Z" fill="#F5F3FF" stroke="#7C3AED" />
	<path d="M155.057 39V30.2727H156.062V33.4943H156.148C156.222 33.3807 156.324 33.2358 156.455 33.0597C156.588 32.8807 156.778 32.7216 157.026 32.5824C157.276 32.4403 157.614 32.3693 158.04 32.3693C158.591 32.3693 159.077 32.5071 159.497 32.7827C159.918 33.0582 160.246 33.4489 160.482 33.9545C160.717 34.4602 160.835 35.0568 160.835 35.7443C160.835 36.4375 160.717 37.0384 160.482 37.5469C160.246 38.0526 159.919 38.4446 159.501 38.723C159.084 38.9986 158.602 39.1364 158.057 39.1364C157.636 39.1364 157.3 39.0668 157.047 38.9276C156.794 38.7855 156.599 38.625 156.463 38.446C156.327 38.2642 156.222 38.1136 156.148 37.9943H156.028V39H155.057ZM156.045 35.7273C156.045 36.2216 156.118 36.6577 156.263 37.0355C156.408 37.4105 156.619 37.7045 156.898 37.9176C157.176 38.1278 157.517 38.233 157.92 38.233C158.341 38.233 158.692 38.1222 158.973 37.9006C159.257 37.6761 159.47 37.375 159.612 36.9972C159.757 36.6165 159.83 36.1932 159.83 35.7273C159.83 35.267 159.759 34.8523 159.616 34.483C159.477 34.1108 159.266 33.8168 158.982 33.6009C158.7 33.3821 158.347 33.2727 157.92 33.2727C157.511 33.2727 157.168 33.3764 156.889 33.5838C156.611 33.7884 156.401 34.0753 156.259 34.4446C156.116 34.8111 156.045 35.2386 156.045 35.7273Z" fill="#7C3AED" />
	<path d="M88.8466 39.1534C88.4318 39.1534 88.0554 39.0753 87.7173 38.919C87.3793 38.7599 87.1108 38.5312 86.9119 38.233C86.7131 37.9318 86.6136 37.5682 86.6136 37.142C86.6136 36.767 86.6875 36.4631 86.8352 36.2301C86.983 35.9943 87.1804 35.8097 87.4276 35.6761C87.6747 35.5426 87.9474 35.4432 88.2457 35.3778C88.5469 35.3097 88.8494 35.2557 89.1534 35.2159C89.5511 35.1648 89.8736 35.1264 90.1207 35.1009C90.3707 35.0724 90.5526 35.0256 90.6662 34.9602C90.7827 34.8949 90.8409 34.7812 90.8409 34.6193V34.5852C90.8409 34.1648 90.7259 33.8381 90.4957 33.6051C90.2685 33.3722 89.9233 33.2557 89.4602 33.2557C88.9801 33.2557 88.6037 33.3608 88.331 33.571C88.0582 33.7812 87.8665 34.0057 87.7557 34.2443L86.8011 33.9034C86.9716 33.5057 87.1989 33.196 87.483 32.9744C87.7699 32.75 88.0824 32.5937 88.4205 32.5057C88.7614 32.4148 89.0966 32.3693 89.4261 32.3693C89.6364 32.3693 89.8778 32.3949 90.1506 32.446C90.4261 32.4943 90.6918 32.5952 90.9474 32.7486C91.206 32.902 91.4205 33.1335 91.5909 33.4432C91.7614 33.7528 91.8466 34.1676 91.8466 34.6875V39H90.8409V38.1136H90.7898C90.7216 38.2557 90.608 38.4077 90.4489 38.5696C90.2898 38.7315 90.0781 38.8693 89.8139 38.983C89.5497 39.0966 89.2273 39.1534 88.8466 39.1534ZM89 38.25C89.3977 38.25 89.733 38.1719 90.0057 38.0156C90.2813 37.8594 90.4886 37.6577 90.6278 37.4105C90.7699 37.1634 90.8409 36.9034 90.8409 36.6307V35.7102C90.7983 35.7614 90.7045 35.8082 90.5597 35.8509C90.4176 35.8906 90.2528 35.9261 90.0653 35.9574C89.8807 35.9858 89.7003 36.0114 89.5241 36.0341C89.3509 36.054 89.2102 36.071 89.1023 36.0852C88.8409 36.1193 88.5966 36.1747 88.3693 36.2514C88.1449 36.3253 87.9631 36.4375 87.8239 36.5881C87.6875 36.7358 87.6193 36.9375 87.6193 37.1932C87.6193 37.5426 87.7486 37.8068 88.0071 37.9858C88.2685 38.1619 88.5994 38.25 89 38.25Z" fill="#7C3AED" />
	<path d="M131.58 92.1364C130.966 92.1364 130.438 91.9915 129.994 91.7017C129.551 91.4119 129.21 91.0128 128.972 90.5043C128.733 89.9957 128.614 89.4148 128.614 88.7614C128.614 88.0966 128.736 87.5099 128.98 87.0014C129.227 86.4901 129.571 86.0909 130.011 85.804C130.455 85.5142 130.972 85.3693 131.562 85.3693C132.023 85.3693 132.438 85.4545 132.807 85.625C133.176 85.7955 133.479 86.0341 133.714 86.3409C133.95 86.6477 134.097 87.0057 134.153 87.4148H133.148C133.071 87.1165 132.901 86.8523 132.636 86.6222C132.375 86.3892 132.023 86.2727 131.58 86.2727C131.188 86.2727 130.844 86.375 130.548 86.5795C130.256 86.7812 130.027 87.0668 129.862 87.4361C129.7 87.8026 129.619 88.233 129.619 88.7273C129.619 89.233 129.699 89.6733 129.858 90.0483C130.02 90.4233 130.247 90.7145 130.54 90.9219C130.835 91.1293 131.182 91.233 131.58 91.233C131.841 91.233 132.078 91.1875 132.291 91.0966C132.504 91.0057 132.685 90.875 132.832 90.7045C132.98 90.5341 133.085 90.3295 133.148 90.0909H134.153C134.097 90.4773 133.956 90.8253 133.732 91.1349C133.51 91.4418 133.216 91.6861 132.849 91.8679C132.486 92.0469 132.063 92.1364 131.58 92.1364Z" fill="#7C3AED" />
</svg>